<svg xmlns="http://www.w3.org/2000/svg" xmlns:xlink="http://www.w3.org/1999/xlink" version="1.1" id="Capa_1" x="0px" y="0px" viewBox="0 0 54 54" style="enable-background:new 0 0 54 54;" xml:space="preserve" width="512px" height="512px">
<path d="M45.5,20.231h-5V13c0-0.202-0.075-0.379-0.178-0.536C40.428,11.979,40.5,11.491,40.5,11c0-3.859-3.141-7-7-7  c-1.189,0-2.333,0.295-3.358,0.861C28.835,3.073,26.758,2,24.5,2c-0.713,0-1.411,0.106-2.085,0.318C21.002,0.837,19.066,0,17,0  c-3.198,0-6.036,2.061-7.077,5.018C9.78,5.006,9.64,5,9.5,5c-3.309,0-6,2.691-6,6v8c0,1.654,1.346,3,3,3h1  c0.352,0,0.686-0.072,1-0.184V26v21v1c0,3.309,2.691,6,6,6h20c3.309,0,6-2.691,6-6v-1v-2.769h5c2.757,0,5-2.243,5-5v-14  C50.5,22.475,48.257,20.231,45.5,20.231z M32.5,46h-4V26c0-1.103,0.897-2,2-2s2,0.897,2,2V46z M30.5,22  c-1.201,0-2.266,0.542-3,1.382c-0.734-0.84-1.799-1.382-3-1.382s-2.266,0.542-3,1.382c-0.734-0.84-1.799-1.382-3-1.382  s-2.266,0.542-3,1.382c-0.734-0.84-1.799-1.382-3-1.382c-0.732,0-1.409,0.212-2,0.556V19v-0.121C10.852,18.959,11.209,19,11.567,19  h1.968c1.127,0,2.2-0.383,3.072-1.077C17.914,19.239,19.698,20,21.567,20c3.521,0,6.442-2.612,6.929-6H38.5v7.231v1.325  C37.909,22.212,37.232,22,36.5,22c-1.201,0-2.266,0.542-3,1.382C32.766,22.542,31.701,22,30.5,22z M26.5,46h-4V26  c0-1.103,0.897-2,2-2s2,0.897,2,2V46z M20.5,46h-4V26c0-1.103,0.897-2,2-2s2,0.897,2,2V46z M14.5,46h-4V26c0-1.103,0.897-2,2-2  s2,0.897,2,2V46z M34.5,26c0-1.103,0.897-2,2-2s2,0.897,2,2v13.231v4V46h-4V26z M40.5,26.231h3c0.552,0,1,0.448,1,1v10  c0,0.552-0.448,1-1,1h-3V26.231z M7.5,20h-1c-0.552,0-1-0.448-1-1v-8c0-2.206,1.794-4,4-4c0.281,0,0.58,0.038,0.914,0.117  c0.266,0.062,0.539,0.016,0.765-0.129c0.228-0.145,0.387-0.374,0.443-0.637C12.157,3.83,14.419,2,17,2  c1.696,0,3.273,0.771,4.326,2.113c0.281,0.357,0.768,0.484,1.186,0.3C23.144,4.139,23.813,4,24.5,4c1.878,0,3.58,1.041,4.443,2.716  c0.136,0.264,0.382,0.454,0.672,0.519c0.292,0.063,0.595-0.004,0.829-0.186C31.331,6.362,32.388,6,33.5,6c2.757,0,5,2.243,5,5  c0,0.334-0.035,0.669-0.104,1H27.567c-0.553,0-1,0.447-1,1c0,2.757-2.243,5-5,5c-1.611,0-3.137-0.796-4.08-2.129  c-0.183-0.258-0.476-0.414-0.792-0.422c-0.33-0.007-0.617,0.134-0.811,0.383C15.302,16.574,14.445,17,13.535,17h-1.968  c-0.538,0-1.059-0.151-1.546-0.449c-0.309-0.188-0.694-0.194-1.011-0.019C8.695,16.709,8.5,17.043,8.5,17.404V19  C8.5,19.552,8.052,20,7.5,20z M34.5,52h-20c-2.206,0-4-1.794-4-4h5h6h6h6h5C38.5,50.206,36.706,52,34.5,52z M48.5,39.231  c0,1.654-1.346,3-3,3h-5v-2h3c1.654,0,3-1.346,3-3v-10c0-1.654-1.346-3-3-3h-3v-2h5c1.654,0,3,1.346,3,3V39.231z" fill="#FFFFFF"/>
<g>
</g>
<g>
</g>
<g>
</g>
<g>
</g>
<g>
</g>
<g>
</g>
<g>
</g>
<g>
</g>
<g>
</g>
<g>
</g>
<g>
</g>
<g>
</g>
<g>
</g>
<g>
</g>
<g>
</g>
</svg>